<?xml version="1.0" encoding="utf-8"?>
<!-- Generator: Adobe Illustrator 24.1.0, SVG Export Plug-In . SVG Version: 6.00 Build 0)  -->
<svg version="1.1" id="Layer_1" xmlns="http://www.w3.org/2000/svg" xmlns:xlink="http://www.w3.org/1999/xlink" x="0px" y="0px"
	 viewBox="0 0 3300 2200" style="enable-background:new 0 0 3300 2200;" xml:space="preserve">
<style type="text/css">
	.st0{fill:#FFFFFF;}
	.st1{fill:none;stroke:#000000;stroke-width:0.5;}
	.st2{font-family:'Arial-BoldMT';}
	.st3{font-size:12px;}
	.st4{font-family:'ArialMT';}
	.st5{opacity:0.4;fill:#00AEEF;enable-background:new    ;}
	.st6{fill:#27AAE1;}
	.st7{fill:none;stroke:#27AAE1;stroke-width:0.577;}
</style>
<g id="Notes">
	<rect id="artboard" class="st0" width="3300" height="2200"/>
	<line class="st1" x1="263" y1="292" x2="3036" y2="292"/>
	<text transform="matrix(1 0 0 1 263 322)" class="st2 st3">Weight/Scale Variations</text>
	<text transform="matrix(1 0 0 1 536.0362 322)" class="st4 st3">Ultralight</text>
	<text transform="matrix(1 0 0 1 844.7501 322)" class="st4 st3">Thin</text>
	<text transform="matrix(1 0 0 1 1140.1193 322)" class="st4 st3">Light</text>
	<text transform="matrix(1 0 0 1 1428.8282 322)" class="st4 st3">Regular</text>
	<text transform="matrix(1 0 0 1 1725.2202 322)" class="st4 st3">Medium</text>
	<text transform="matrix(1 0 0 1 2018.2563 322)" class="st4 st3">Semibold</text>
	<text transform="matrix(1 0 0 1 2327.9712 322)" class="st4 st3">Bold</text>
	<text transform="matrix(1 0 0 1 2619.6831 322)" class="st4 st3">Heavy</text>
	<text transform="matrix(1 0 0 1 2918.728 322)" class="st4 st3">Black</text>
	<line class="st1" x1="263" y1="1903" x2="3036" y2="1903"/>
	<g transform="matrix(1 0 0 1 263 1933)">
		<path d="M9.2,0.8c4.3,0,7.9-3.6,7.9-7.9S13.5-15,9.2-15s-7.9,3.6-7.9,7.9C1.4-2.7,5,0.8,9.2,0.8z M9.2-0.7c-3.5,0-6.4-2.8-6.4-6.4
			s2.8-6.4,6.4-6.4s6.4,2.8,6.4,6.4C15.7-3.5,12.8-0.7,9.2-0.7z M9.2-3.4c0.5,0,0.7-0.3,0.7-0.8v-2.1h2.2C12.7-6.3,13-6.6,13-7
			c0-0.5-0.3-0.7-0.8-0.7H10V-10c0-0.5-0.3-0.8-0.7-0.8S8.5-10.5,8.5-10v2.2H6.3C5.8-7.8,5.4-7.5,5.4-7s0.4,0.7,0.8,0.7h2.2v2.1
			C8.5-3.8,8.8-3.4,9.2-3.4z"/>
	</g>
	<g transform="matrix(1 0 0 1 281.506 1933)">
		<path d="M11.7,2.9c5.4,0,10-4.5,10-10c0-5.4-4.5-10-10-10c-5.4,0-10,4.5-10,10C1.7-1.6,6.3,2.9,11.7,2.9z M11.7,1.2
			c-4.6,0-8.3-3.7-8.3-8.3s3.7-8.3,8.3-8.3S20-11.7,20-7.1C20-2.4,16.3,1.2,11.7,1.2z M11.7-2.4c0.5,0,0.8-0.4,0.8-0.9v-2.9h3.1
			c0.5,0,0.9-0.3,0.9-0.8s-0.4-0.8-0.9-0.8h-3.1v-3.1c0-0.6-0.3-0.9-0.8-0.9s-0.8,0.4-0.8,0.9v3.1h-3c-0.6-0.1-1,0.2-1,0.8
			c0,0.5,0.4,0.8,0.9,0.8h3v2.9C10.9-2.8,11.2-2.4,11.7-2.4z"/>
	</g>
	<g transform="matrix(1 0 0 1 304.924 1933)">
		<path d="M15,5.7c7,0,12.7-5.8,12.7-12.7c0-7-5.8-12.7-12.7-12.7C8-19.8,2.3-14,2.3-7C2.3-0.1,8,5.7,15,5.7z M15,3.9
			C8.9,3.9,4.1-1,4.1-7S8.9-17.9,15-17.9c6,0,10.9,4.9,10.9,10.9S21,3.9,15,3.9z M15-1.1c0.6,0,0.9-0.4,0.9-1v-4.1h4.2
			c0.6,0,1-0.3,1-0.9S20.7-8,20.1-8h-4.2v-4.2c0-0.6-0.4-1-0.9-1c-0.6,0-0.9,0.4-0.9,1V-8H9.8c-0.6,0-1,0.3-1,0.9s0.4,0.9,1,0.9H14
			v4.1C14.1-1.5,14.4-1.1,15-1.1z"/>
	</g>
	<text transform="matrix(1 0 0 1 263 1953)" class="st2 st3">Design Variations</text>
	<text transform="matrix(1 0 0 1 263 1971)" class="st4 st3">Symbols are supported in up to nine weights and three scales.</text>
	<text transform="matrix(1 0 0 1 263 1989)" class="st4 st3">For optimal layout with text and other symbols, vertically align</text>
	<text transform="matrix(1 0 0 1 263 2007)" class="st4 st3">symbols with the adjacent text.</text>
	<rect x="776" y="1919" class="st5" width="3" height="14"/>
	<g transform="matrix(1 0 0 1 779 1933)">
		<path d="M10.5,0h1.8L7.2-14.1H5.4L0.2,0H2l1.4-4H9L10.5,0z M6.3-12L6.3-12l2.3,6.4H4L6.3-12z"/>
	</g>
	<rect x="791.6" y="1919" class="st5" width="3" height="14"/>
	<text transform="matrix(1 0 0 1 776 1953)" class="st2 st3">Margins</text>
	<text transform="matrix(1 0 0 1 776 1971)" class="st4 st3">Leading and trailing margins on the left and right side of each symbol</text>
	<text transform="matrix(1 0 0 1 776 1989)" class="st4 st3">can be adjusted by modifying the width of the blue rectangles.</text>
	<text transform="matrix(1 0 0 1 776 2007)" class="st4 st3">Modifications are automatically applied proportionally to all</text>
	<text transform="matrix(1 0 0 1 776 2025)" class="st4 st3">scales and weights.</text>
	<g transform="matrix(1 0 0 1 1289 1933)">
		<path d="M2.8,3.1l1.5,1.5C5.1,5.4,6.1,5.4,7,4.4L17.3-6.7c0.4,0.3,0.8,0.3,1.3,0.2l1-0.2L20.3-6v0.5c-0.1,0.5,0.1,1,0.5,1.5
			l0.8,0.8c0.5,0.5,1.2,0.5,1.6,0.1l3.3-3.3C27-6.9,27-7.5,26.5-8l-0.8-0.8c-0.5-0.5-0.9-0.7-1.4-0.6l-0.5,0.1L23.1-10l0.3-1.1
			c0.1-0.6,0-1-0.6-1.6l-2.4-2.4c-3.5-3.5-8.1-3.4-11.2-0.3C8.8-15,8.7-14.4,9-14c0.2,0.4,0.7,0.6,1.4,0.4c1.5-0.4,3-0.3,4.5,0.7
			l-0.6,1.6c-0.2,0.6-0.2,1.1,0,1.5L3,0.4C2.1,1.3,2,2.3,2.8,3.1z M10.7-15.1c2.7-2,6-1.7,8.4,0.7l2.6,2.6c0.2,0.2,0.3,0.4,0.2,0.7
			l-0.4,1.6L23.1-8H24c0.3,0,0.4,0,0.6,0.2l0.6,0.6l-2.8,2.7l-0.6-0.6c-0.2-0.2-0.2-0.3-0.2-0.6l0.1-1l-1.6-1.6L18.5-8
			c-0.3,0.1-0.4,0.1-0.7-0.2l-2.2-2.2c-0.2-0.2-0.3-0.4-0.1-0.7l0.9-2.3c-1.6-1.5-3.7-2.4-5.8-1.7c-0.1,0-0.2,0-0.2,0
			C10.6-15,10.6-15.1,10.7-15.1z M4.1,2.4c-0.5-0.5-0.3-0.8,0-1.1l11-10.1l1.2,1.2L6.2,3.3c-0.3,0.3-0.7,0.4-1.1,0L4.1,2.4z"/>
	</g>
	<text transform="matrix(1 0 0 1 1289 1953)" class="st2 st3">Exporting</text>
	<text transform="matrix(1 0 0 1 1289 1971)" class="st4 st3">Symbols should be outlined when exporting to ensure the</text>
	<text transform="matrix(1 0 0 1 1289 1989)" class="st4 st3">design is preserved when submitting to Xcode.</text>
	<text id="template-version" transform="matrix(1 0 0 1 2958.8496 1933)" class="st4 st3">Template v.1.0</text>
	<text transform="matrix(1 0 0 1 2877.252 1951)" class="st4 st3">Generated from dot.square.fill</text>
	<text transform="matrix(1 0 0 1 2921.9238 1969)" class="st4 st3">Typeset at 100 points</text>
	<text transform="matrix(1 0 0 1 263 726)" class="st4 st3">Small</text>
	<text transform="matrix(1 0 0 1 263 1156)" class="st4 st3">Medium</text>
	<text transform="matrix(1 0 0 1 263 1586)" class="st4 st3">Large</text>
</g>
<g id="Guides">
	<g id="H-reference" transform="matrix(1 0 0 1 339 696)">
		<path class="st6" d="M54.9,0h2.7l-27-70.5h-2.5L1,0h2.7L13-24.5h32.8L54.9,0z M29.2-67.1h0.2l15.4,40.4h-31L29.2-67.1z"/>
	</g>
	<line id="Baseline-S" class="st7" x1="263" y1="696" x2="3036" y2="696"/>
	<line id="Capline-S" class="st7" x1="263" y1="625.5" x2="3036" y2="625.5"/>
	<g id="H-reference_1_" transform="matrix(1 0 0 1 339 1126)">
		<path class="st6" d="M54.9,0h2.7l-27-70.5h-2.5L1,0h2.7L13-24.5h32.8L54.9,0z M29.2-67.1h0.2l15.4,40.4h-31L29.2-67.1z"/>
	</g>
	<line id="Baseline-M" class="st7" x1="263" y1="1126" x2="3036" y2="1126"/>
	<line id="Capline-M" class="st7" x1="263" y1="1055.5" x2="3036" y2="1055.5"/>
	<g id="H-reference_2_" transform="matrix(1 0 0 1 339 1556)">
		<path class="st6" d="M54.9,0h2.7l-27-70.5h-2.5L1,0h2.7L13-24.5h32.8L54.9,0z M29.2-67.1h0.2l15.4,40.4h-31L29.2-67.1z"/>
	</g>
	<line id="Baseline-L" class="st7" x1="263" y1="1556" x2="3036" y2="1556"/>
	<line id="Capline-L" class="st7" x1="263" y1="1485.5" x2="3036" y2="1485.5"/>
	<rect id="left-margin" x="1392.4" y="1030.8" class="st5" width="12.5" height="119.3"/>
	<rect id="right-margin" x="1494.8" y="1030.8" class="st5" width="12.5" height="119.3"/>
</g>
<g id="Symbols">
	<g id="Black-L" transform="matrix(1 0 0 1 2855.62 1556)">
		<path d="M40,26.5h75.6c15.2,0,23.9-8.6,23.9-23.8v-75.8c0-15.2-8.7-23.8-23.9-23.8H40c-15.2,0-23.9,8.6-23.9,23.8V2.7
			C16.1,17.9,24.8,26.5,40,26.5z M77.8-13c-12.3,0-22.3-10-22.3-22.3c0-12.2,10.1-22.2,22.3-22.2c12.3,0,22.3,10,22.3,22.2
			C100.1-23,90.1-13,77.8-13z"/>
	</g>
	<g id="Heavy-L" transform="matrix(1 0 0 1 2559.93 1556)">
		<path d="M38.8,25.5h75.9c14.6,0,22.8-8.1,22.8-22.6v-76.1c0-14.6-8.1-22.6-22.8-22.6H38.8C24.2-95.8,16-87.7,16-73.2V2.9
			C16.1,17.4,24.2,25.5,38.8,25.5z M76.9-13.6c-12,0-21.8-9.7-21.8-21.8c0-11.9,9.8-21.6,21.8-21.6c11.9,0,21.7,9.7,21.7,21.6
			C98.5-23.3,88.8-13.6,76.9-13.6z"/>
	</g>
	<g id="Bold-L" transform="matrix(1 0 0 1 2264.37 1556)">
		<path d="M37.5,24.4h76.2c13.9,0,21.4-7.5,21.4-21.3v-76.5c0-13.8-7.5-21.3-21.4-21.3H37.5c-13.9,0-21.4,7.5-21.4,21.3V3.1
			C16.1,16.9,23.6,24.4,37.5,24.4z M75.7-14.2c-11.7,0-21.1-9.4-21.1-21.1c0-11.6,9.5-21,21.1-21s21.1,9.4,21.1,21
			C96.8-23.6,87.3-14.2,75.7-14.2z"/>
	</g>
	<g id="Semibold-L" transform="matrix(1 0 0 1 1968.44 1556)">
		<path d="M36.6,23.6H113c13.5,0,20.6-7.1,20.6-20.4v-76.7c0-13.3-7.1-20.4-20.6-20.4H36.6C23.2-93.9,16-86.8,16-73.5V3.2
			C16.1,16.6,23.2,23.6,36.6,23.6z M74.9-14.6c-11.4,0-20.8-9.2-20.8-20.8c0-11.3,9.3-20.6,20.8-20.6c11.3,0,20.7,9.2,20.7,20.6
			C95.6-23.8,86.2-14.6,74.9-14.6z"/>
	</g>
	<g id="Medium-L" transform="matrix(1 0 0 1 1672.31 1556)">
		<path d="M35.9,23h76.6c13.1,0,19.9-6.8,19.9-19.7v-76.9c0-12.9-6.8-19.7-19.9-19.7H35.9c-13,0-19.9,6.7-19.9,19.7V3.3
			C16.1,16.3,22.9,23,35.9,23z M74.3-14.9c-11.2,0-20.4-9.1-20.4-20.4c0-11.2,9.2-20.3,20.4-20.3s20.4,9.1,20.4,20.3
			C94.7-24,85.5-14.9,74.3-14.9z"/>
	</g>
	<g id="Regular-L" transform="matrix(1 0 0 1 1376.38 1556)">
		<path d="M35.1,22.2h76.8c12.6,0,19-6.3,19-18.8v-77.1c0-12.5-6.4-18.8-19-18.8H35.1c-12.6,0-19,6.3-19,18.8V3.4
			C16.1,15.9,22.5,22.2,35.1,22.2z M73.5-15.3c-11,0-20-8.9-20-20c0-10.9,9-19.8,20-19.8c10.9,0,19.9,8.9,19.9,19.8
			C93.5-24.3,84.5-15.3,73.5-15.3z"/>
	</g>
	<g id="Light-L" transform="matrix(1 0 0 1 1080.5 1556)">
		<path d="M34,21.4h77.2c11.9,0,18-6.2,18-17.9v-77.4c0-11.7-6.1-17.9-18-17.9H34c-11.9,0-18,6.1-18,17.9V3.6
			C16.1,15.4,22.2,21.4,34,21.4z M72.7-15.8c-10.8,0-19.6-8.7-19.6-19.6c0-10.7,8.8-19.4,19.6-19.4c10.7,0,19.5,8.7,19.5,19.4
			C92.2-24.5,83.4-15.8,72.7-15.8z"/>
	</g>
	<g id="Thin-L" transform="matrix(1 0 0 1 784.889 1556)">
		<path d="M32.7,20.4h77.7c10.9,0,16.7-5.9,16.7-16.6V-74c0-10.7-5.8-16.6-16.7-16.6H32.7c-10.9,0-16.6,5.7-16.6,16.6V3.8
			C16.1,14.6,21.8,20.4,32.7,20.4z M71.6-16.4c-10.4,0-18.9-8.4-18.9-19c0-10.4,8.5-18.8,18.9-18.8s18.9,8.4,18.9,18.8
			C90.5-24.8,82-16.4,71.6-16.4z"/>
	</g>
	<g id="Ultralight-L" transform="matrix(1 0 0 1 488.739 1556)">
		<path d="M32,19.8h78c10.4,0,15.9-5.7,15.9-15.9V-74c0-10.2-5.6-15.9-15.9-15.9H32c-10.4,0-15.9,5.5-15.9,15.9V3.9
			C16.1,14.3,21.6,19.8,32,19.8z M71-16.7c-10.3,0-18.7-8.3-18.7-18.7c0-10.2,8.4-18.5,18.7-18.5c10.2,0,18.6,8.3,18.6,18.5
			C89.6-25,81.2-16.7,71-16.7z"/>
	</g>
	<g id="Black-M" transform="matrix(1 0 0 1 2872.19 1126)">
		<path d="M32,13.6h58.4C102.7,13.6,110,6.3,110-6v-58.4c0-12.3-7.3-19.5-19.5-19.5H32c-12.3,0-19.5,7.3-19.5,19.5V-6
			C12.5,6.3,19.7,13.6,32,13.6z M61.3-17.5c-9.8,0-17.8-7.9-17.8-17.8c0-9.8,8-17.7,17.8-17.7C71-53,79-45.1,79-35.3
			C79-25.4,71-17.5,61.3-17.5z"/>
	</g>
	<g id="Heavy-M" transform="matrix(1 0 0 1 2576.39 1126)">
		<path d="M31,12.6h58.6c11.8,0,18.5-6.7,18.5-18.5v-58.7c0-11.7-6.7-18.5-18.5-18.5H31c-11.8,0-18.6,6.7-18.6,18.5v58.7
			C12.5,5.9,19.2,12.6,31,12.6z M60.4-18c-9.5,0-17.3-7.7-17.3-17.3c0-9.5,7.8-17.2,17.3-17.2s17.3,7.7,17.3,17.2
			C77.6-25.7,69.8-18,60.4-18z"/>
	</g>
	<g id="Bold-M" transform="matrix(1 0 0 1 2280.68 1126)">
		<path d="M29.9,11.7h58.8c11.2,0,17.4-6.2,17.4-17.3v-59c0-11.2-6.2-17.3-17.4-17.3H29.9c-11.2,0-17.4,6.2-17.4,17.3v59
			C12.5,5.5,18.7,11.7,29.9,11.7z M59.4-18.6c-9.2,0-16.8-7.5-16.8-16.7S50.2-52,59.4-52s16.7,7.5,16.7,16.7
			C76.1-26,68.6-18.6,59.4-18.6z"/>
	</g>
	<g id="Semibold-M" transform="matrix(1 0 0 1 1984.65 1126)">
		<path d="M29.1,11h59c10.9,0,16.7-5.8,16.7-16.6v-59.3c0-10.7-5.8-16.5-16.7-16.5h-59c-10.8,0-16.7,5.8-16.7,16.5v59.3
			C12.5,5.2,18.3,11,29.1,11z M58.7-18.9c-9,0-16.4-7.3-16.4-16.4c0-9,7.4-16.3,16.4-16.3c8.9,0,16.3,7.3,16.3,16.3
			C75-26.2,67.6-18.9,58.7-18.9z"/>
	</g>
	<g id="Medium-M" transform="matrix(1 0 0 1 1688.47 1126)">
		<path d="M28.5,10.4h59.1c10.6,0,16.1-5.5,16.1-15.9v-59.4c0-10.4-5.5-15.9-16.1-15.9H28.5c-10.5,0-16.1,5.4-16.1,15.9v59.4
			C12.5,5,18,10.4,28.5,10.4z M58.2-19.2c-8.9,0-16.1-7.2-16.1-16.1c0-8.8,7.2-16,16.1-16c8.8,0,16.1,7.2,16.1,16
			C74.2-26.4,66.9-19.2,58.2-19.2z"/>
	</g>
	<g id="Regular-M" transform="matrix(1 0 0 1 1392.45 1126)">
		<path d="M101.1-72.8c-0.7-0.6-1.7-0.8-2.6-0.6L26.1-57.7H14c-1.7,0-3.2,1.4-3.2,3.2v37.9c0,1.7,1.4,3.2,3.2,3.2h12.1l9.6,2.1v12
			c0,1.4,1,2.7,2.4,3.1L63,9.9c0.3,0.1,0.5,0.1,0.8,0.1c0.7,0,1.4-0.2,1.9-0.7c0.8-0.6,1.2-1.5,1.2-2.5V-4.7l31.6,6.9
			c0.2,0,0.4,0.1,0.7,0.1c0.7,0,1.4-0.2,2-0.7c0.7-0.6,1.2-1.5,1.2-2.5v-69.4C102.3-71.3,101.9-72.2,101.1-72.8z M17.2-51.4h6.1
			v31.6h-6.1V-51.4z M60.6,2.8L42-1.9v-8.2l18.5,4V2.8z M96-4.8L29.6-19.3V-52L96-66.4L96-4.8L96-4.8z"/>
	</g>
	<g id="Light-M" transform="matrix(1 0 0 1 1096.47 1126)">
		<path d="M26.9,9h59.6c9.5,0,14.4-4.9,14.4-14.3v-59.9c0-9.4-4.9-14.3-14.4-14.3H26.9c-9.5,0-14.4,4.8-14.4,14.3v59.9
			C12.5,4.2,17.3,9,26.9,9z M56.7-20c-8.5,0-15.4-6.8-15.4-15.3c0-8.4,6.9-15.2,15.4-15.2c8.4,0,15.3,6.8,15.3,15.2
			C72-26.8,65.1-20,56.7-20z"/>
	</g>
	<g id="Thin-M" transform="matrix(1 0 0 1 800.758 1126)">
		<path d="M25.6,8.1h60.1c8.6,0,13.1-4.6,13.1-13.1v-60.2c0-8.5-4.5-13.1-13.1-13.1H25.6c-8.6,0-13.2,4.5-13.2,13.1V-5
			C12.5,3.6,17,8.1,25.6,8.1z M55.7-20.5c-8.2,0-14.8-6.6-14.8-14.8S47.5-50,55.7-50s14.8,6.6,14.8,14.7
			C70.5-27.1,63.9-20.5,55.7-20.5z"/>
	</g>
	<g id="Ultralight-M" transform="matrix(1 0 0 1 504.535 1126)">
		<path d="M25,7.6h60.4c8.2,0,12.5-4.4,12.5-12.5v-60.3c0-8.1-4.4-12.5-12.5-12.5H25c-8.2,0-12.5,4.3-12.5,12.5V-5
			C12.5,3.2,16.8,7.6,25,7.6z M55.2-20.8c-8,0-14.6-6.5-14.6-14.6c0-8,6.5-14.5,14.6-14.5c8,0,14.5,6.4,14.5,14.5
			C69.7-27.2,63.2-20.8,55.2-20.8z"/>
	</g>
	<g id="Black-S" transform="matrix(1 0 0 1 2885.5 696)">
		<path d="M25,2.9h45.8C80.4,2.9,86-2.7,86-12.3v-45.8c0-9.6-5.7-15.2-15.2-15.2H25c-9.6,0-15.2,5.7-15.2,15.2v45.8
			C9.8-2.7,15.4,2.9,25,2.9z M47.9-21.4c-7.7,0-13.9-6.2-13.9-13.9c0-7.6,6.2-13.8,13.9-13.8c7.6,0,13.9,6.2,13.9,13.8
			C61.8-27.6,55.6-21.4,47.9-21.4z"/>
	</g>
	<g id="Heavy-S" transform="matrix(1 0 0 1 2589.4 696)">
		<path d="M24.4,2.3h45.9c9.3,0,14.6-5.3,14.6-14.6v-46c0-9.2-5.3-14.6-14.6-14.6H24.4c-9.3,0-14.6,5.3-14.6,14.6v46
			C9.8-3,15.1,2.3,24.4,2.3z M47.4-21.7c-7.5,0-13.6-6.1-13.6-13.6c0-7.4,6.1-13.5,13.6-13.5c7.4,0,13.5,6.1,13.5,13.5
			C60.9-27.8,54.8-21.7,47.4-21.7z"/>
	</g>
	<g id="Bold-S" transform="matrix(1 0 0 1 2293.35 696)">
		<path d="M23.6,1.7h46c9,0,13.9-4.9,13.9-13.8v-46.2c0-8.9-4.9-13.8-13.9-13.8h-46c-8.9,0-13.9,4.9-13.9,13.8v46.2
			C9.8-3.2,14.7,1.7,23.6,1.7z M46.7-22.1c-7.3,0-13.2-5.9-13.2-13.2c0-7.2,6-13.1,13.2-13.1s13.2,5.9,13.2,13.1
			C59.9-28,53.9-22.1,46.7-22.1z"/>
	</g>
	<g id="Semibold-S" transform="matrix(1 0 0 1 1997.1 696)">
		<path d="M23.1,1.2h46.1c8.7,0,13.4-4.5,13.4-13.2v-46.4c0-8.6-4.6-13.2-13.4-13.2H23.1c-8.7,0-13.3,4.5-13.3,13.2V-12
			C9.8-3.4,14.4,1.2,23.1,1.2z M46.2-22.3c-7.1,0-12.9-5.8-12.9-13c0-7.1,5.8-12.9,12.9-12.9s12.9,5.8,12.9,12.9
			C59.1-28.1,53.3-22.3,46.2-22.3z"/>
	</g>
	<g id="Medium-S" transform="matrix(1 0 0 1 1700.75 696)">
		<path d="M22.7,0.8h46.2c8.5,0,12.9-4.3,12.9-12.8v-46.5c0-8.4-4.4-12.8-12.9-12.8H22.7c-8.5,0-12.9,4.3-12.9,12.8V-12
			C9.8-3.5,14.2,0.8,22.7,0.8z M45.8-22.5c-7,0-12.8-5.7-12.8-12.8c0-7,5.8-12.7,12.8-12.7s12.7,5.7,12.7,12.7
			C58.6-28.2,52.8-22.5,45.8-22.5z"/>
	</g>
	<g id="Regular-S" transform="matrix(1 0 0 1 1404.51 696)">
		<path d="M22.2,0.4h46.2c8.3,0,12.5-4.1,12.5-12.3v-46.6c0-8.2-4.1-12.3-12.5-12.3H22.2c-8.3,0-12.5,4.1-12.5,12.3v46.6
			C9.8-3.7,13.9,0.4,22.2,0.4z M45.4-22.8c-6.9,0-12.5-5.6-12.5-12.5c0-6.8,5.6-12.5,12.5-12.5c6.8,0,12.5,5.6,12.5,12.5
			S52.2-22.8,45.4-22.8z"/>
	</g>
	<g id="Light-S" transform="matrix(1 0 0 1 1108.46 696)">
		<path d="M21.4-0.3H68c7.8,0,11.6-3.9,11.6-11.5v-46.8c0-7.6-3.9-11.5-11.6-11.5H21.4c-7.7,0-11.6,3.9-11.6,11.5v46.8
			C9.8-4.2,13.7-0.3,21.4-0.3z M44.7-23.1c-6.7,0-12.2-5.5-12.2-12.2c0-6.6,5.5-12.1,12.2-12.1s12.2,5.5,12.2,12.1
			C56.9-28.6,51.4-23.1,44.7-23.1z"/>
	</g>
	<g id="Thin-S" transform="matrix(1 0 0 1 812.599 696)">
		<path d="M20.3-1.1h47c6.9,0,10.5-3.7,10.5-10.5v-47.1c0-6.9-3.6-10.5-10.5-10.5h-47c-6.9,0-10.5,3.6-10.5,10.5v47.1
			C9.8-4.7,13.4-1.1,20.3-1.1z M43.8-23.6c-6.4,0-11.7-5.2-11.7-11.7c0-6.4,5.3-11.6,11.7-11.6s11.7,5.2,11.7,11.6
			C55.5-28.8,50.3-23.6,43.8-23.6z"/>
	</g>
	<g id="Ultralight-S" transform="matrix(1 0 0 1 516.352 696)">
		<path d="M19.8-1.6H67c6.5,0,10-3.6,10-10v-47.3c0-6.4-3.4-10-10-10H19.8c-6.5,0-10,3.5-10,10v47.3C9.8-5,13.2-1.6,19.8-1.6z
			 M43.4-23.8c-6.3,0-11.5-5.1-11.5-11.5c0-6.3,5.1-11.4,11.5-11.4c6.3,0,11.4,5.1,11.4,11.4C54.8-28.9,49.7-23.8,43.4-23.8z"/>
	</g>
</g>
</svg>
